<?xml version="1.0" encoding="utf-8"?>
<!-- Generator: Adobe Illustrator 26.2.1, SVG Export Plug-In . SVG Version: 6.00 Build 0)  -->
<svg version="1.1" id="Layer_1" xmlns="http://www.w3.org/2000/svg" xmlns:xlink="http://www.w3.org/1999/xlink" x="0px" y="0px"
	 viewBox="0 0 1080 264" style="enable-background:new 0 0 1080 264;" xml:space="preserve">
<style type="text/css">
	.st0{fill:#0C2661;}
	.st1{display:none;}
	.st2{display:inline;}
</style>
<g>
	<g>
		<g>
			<path class="st0" d="M169,18.2c0,14,0,28.1,0,42.8c-3.5-0.5-6.8-0.9-10.1-1.3c-41-4.9-78,26.4-80.3,67.7
				c-2.3,41.6,31.1,76.7,72.6,76.3c20.4-0.2,37.6-7.9,52-22.2c1.7-1.7,4.7-3,7.1-3c13.3-0.3,26.7-0.1,40-0.1c1.6,0,3.1,0.2,4.8,0.3
				c-13.9,37.3-65.3,80.5-131.7,64.7c-62.8-15-100.9-80.3-83.7-142.1C57.1,38.9,118.4,8.2,169,18.2z"/>
		</g>
		<g>
			<path class="st0" d="M157.5,74.4c0,7,0,14.1,0,21.5c-1.7-0.2-3.4-0.5-5-0.7c-20.6-2.4-39.1,13.2-40.3,33.9
				c-1.2,20.9,15.6,38.5,36.4,38.3c10.2-0.1,18.8-4,26.1-11.1c0.9-0.8,2.3-1.5,3.5-1.5c6.7-0.1,13.4-0.1,20.1-0.1
				c0.8,0,1.6,0.1,2.4,0.1c-7,18.7-32.7,40.4-66.1,32.4c-31.5-7.5-50.6-40.3-42-71.3C101.3,84.8,132.1,69.4,157.5,74.4z"/>
		</g>
		<g>
			<path class="st0" d="M230.8,103.8c-8.8,4.2-17.7,9.6-27.4,12.7c-8.7,2.8-18.1,3.1-27.3,4.6c-2.9,0.5-4.1-0.8-4-3.8
				c0.1-14.8,0.1-29.6,0-44.4c0-3.2,1.2-4.2,4.3-4.1c7.6,0.1,15.3,0.1,22.9,0c6.8,0,6.8,0,6.8-7c0-7.3,0.1-14.6-0.1-21.9
				c-0.1-3.7,0.9-5.2,4.9-5.1c14.1,0.2,28.3,0.2,42.4,0c4-0.1,5,1.5,4.8,5.2c-0.8,17.6-5.9,33.8-15.1,49.1
				c14.1-12.1,29.7-20.3,49.1-20.3c0,17.6,0,34.7,0,52.7c-4.4,0-8.7,0-13,0c-5.4,0-10.7,0.2-16.1-0.1c-3.4-0.1-4.6,1-4.5,4.4
				c0.2,8,0.1,15.9,0,23.9c0,1.8-0.1,3.5-0.2,5.5c-17.5,0-34.7,0-52.5,0C211.5,136.1,220,118.9,230.8,103.8z"/>
		</g>
	</g>
	<g>
		<path class="st0" d="M335.4,70.4c0-30.3,19.1-51.9,50.3-51.9c26,0,43.9,15.1,48.2,40.7h-17.6C413.1,43.6,401.5,34,385.7,34
			c-20.1,0-32.7,14.1-32.7,36.4c0,22.9,12.6,36.9,32.7,36.9c16.1,0,27.4-9.3,30.6-25.1h17.6c-4.6,26-22,40.7-48.2,40.7
			C354.9,122.9,335.4,101.7,335.4,70.4z"/>
		<path class="st0" d="M445.5,70.4c0-30.3,19.1-51.9,49.9-51.9c29.7,0,50.2,20.4,50.2,51.9c0,30.6-19.3,52.4-50.2,52.4
			C465.8,122.9,445.5,102.3,445.5,70.4z M528.1,70.4c0-22.3-12.7-36.4-32.7-36.4C475.5,34,463,48.1,463,70.4
			c0,22.6,12.6,36.9,32.4,36.9C515.4,107.3,528.1,93,528.1,70.4z"/>
		<path class="st0" d="M561.7,120.7v-100h18.6L629.9,96V20.7H647v100h-18.6l-49.6-75.3v75.3H561.7z"/>
		<path class="st0" d="M667.9,120.7v-100h18.6L736,96V20.7h17.2v100h-18.6L685,45.4v75.3H667.9z"/>
		<path class="st0" d="M774,120.7v-100h70v15.4h-53v25.7h48v15h-48v28.4h54.3v15.4L774,120.7L774,120.7z"/>
		<path class="st0" d="M856.8,70.4c0-30.3,19.2-51.9,50.3-51.9c26,0,43.9,15.1,48.2,40.7h-17.6C934.5,43.6,922.9,34,907.1,34
			c-20.2,0-32.7,14.1-32.7,36.4c0,22.9,12.6,36.9,32.7,36.9c16.2,0,27.4-9.3,30.6-25.1h17.6c-4.6,26-22,40.7-48.2,40.7
			C876.4,122.9,856.8,101.7,856.8,70.4z"/>
		<path class="st0" d="M994,120.7V36.1h-33.4V20.7h83.9v15.4h-33.3v84.6H994z"/>
		<path class="st0" d="M335.4,195.2c0-30.3,19.1-51.9,50.3-51.9c26,0,43.9,15.2,48.2,40.7h-17.6c-3.1-15.7-14.7-25.3-30.6-25.3
			c-20.1,0-32.7,14.2-32.7,36.4c0,22.9,12.6,36.9,32.7,36.9c16.1,0,27.4-9.3,30.6-25.2h17.6c-4.6,26-22,40.7-48.2,40.7
			C354.9,247.6,335.4,226.5,335.4,195.2z"/>
		<path class="st0" d="M436.8,245.5l40.9-100h17.1l41,100h-17.7L508,220.8h-43.3l-10.1,24.7H436.8z M470.8,205.6h31l-15.4-38
			L470.8,205.6z"/>
		<path class="st0" d="M548.8,245.5v-100h48.9c19,0,32.2,11.6,32.2,28.3c0,12.3-8.7,22.4-22,25.9c6.6,1.3,11.3,5.3,13.7,11.4
			l12.9,34.4h-18.3l-11.6-31.6c-1.4-4-4.7-6.1-9.3-6.1H566v37.7L548.8,245.5L548.8,245.5z M566,192.6h30.9c10.6,0,16-7.6,16-16.3
			c0-9.2-6.3-15.4-16-15.4H566V192.6z"/>
		<path class="st0" d="M648.2,245.5v-100h70v15.4h-53v25.7h48v15h-48v28.4h54.3v15.4L648.2,245.5L648.2,245.5z"/>
	</g>
</g>
<g class="st1">
	<g class="st2">
		<path class="st0" d="M556.3-211c0,45.2,0,90.6,0,137.8c-11.2-1.5-21.7-3-32.3-4.3c-131.9-15.6-251,84.8-258.4,217.8
			c-7.4,134,100.1,247,233.8,245.5c65.7-0.7,120.9-25.4,167.3-71.4c5.5-5.5,15-9.5,22.7-9.7c42.9-0.9,85.8-0.5,128.8-0.4
			c5,0,10.1,0.6,15.5,0.9C789,425.4,623.6,564.5,409.8,513.4C207.7,465,84.8,255,140.4,55.9C196.2-144.2,393.6-243.1,556.3-211z"/>
	</g>
	<g class="st2">
		<path class="st0" d="M519.3-29.9c0,22.7,0,45.5,0,69.1c-5.6-0.7-10.9-1.5-16.2-2.1c-66.2-7.8-125.9,42.6-129.6,109.3
			c-3.7,67.2,50.2,123.9,117.3,123.2c32.9-0.3,60.6-12.7,83.9-35.8c2.8-2.7,7.5-4.8,11.4-4.9c21.5-0.5,43.1-0.2,64.6-0.2
			c2.5,0,5.1,0.3,7.8,0.5C636,289.3,553,359.1,445.8,333.4c-101.4-24.3-163-129.6-135.1-229.5C338.6,3.5,437.6-46.1,519.3-29.9z"/>
	</g>
	<g class="st2">
		<path class="st0" d="M755.4,64.7c-28.2,13.4-57.1,30.8-88.3,41c-27.9,9.1-58.4,10.1-87.8,14.7c-9.5,1.5-13-2.6-13-12.2
			c0.3-47.6,0.3-95.2,0-142.8c-0.1-10.5,4-13.5,13.9-13.4c24.6,0.5,49.2,0.2,73.8,0.2c21.9,0,22,0,22-22.7c0-23.5,0.4-47.1-0.2-70.6
			c-0.3-11.8,2.8-16.8,15.7-16.6c45.5,0.7,91,0.7,136.6,0c12.9-0.2,16.1,4.8,15.5,16.6c-2.7,56.6-18.9,108.9-48.6,158.1
			c45.4-38.9,95.5-65.4,158.1-65.4c0,56.6,0,111.8,0,169.8c-14,0-27.9,0-41.8,0c-17.3,0-34.5,0.5-51.8-0.2
			c-10.8-0.4-14.8,3.2-14.5,14.3c0.6,25.6,0.2,51.3,0.1,76.9c0,5.6-0.5,11.2-0.8,17.7c-56.4,0-111.6,0-169,0
			C693.3,168.5,720.7,113.2,755.4,64.7z"/>
	</g>
</g>
</svg>
