<?xml version="1.0" encoding="utf-8"?>
<!-- Generator: Adobe Illustrator 26.2.1, SVG Export Plug-In . SVG Version: 6.00 Build 0)  -->
<svg version="1.1" id="Layer_1" xmlns="http://www.w3.org/2000/svg" xmlns:xlink="http://www.w3.org/1999/xlink" x="0px" y="0px"
	 viewBox="0 0 1080 1080" style="enable-background:new 0 0 1080 1080;" xml:space="preserve">
<style type="text/css">
	.st0{display:none;}
	.st1{display:inline;}
	.st2{fill:#0C2661;}
	.st3{font-family:'PPMori-SemiBold';}
	.st4{font-size:142.8972px;}
</style>
<g class="st0">
	<g class="st1">
		<g>
			<path class="st2" d="M169.69,408.93c0,14.05,0,28.15,0,42.8c-3.46-0.46-6.75-0.94-10.05-1.33
				c-40.98-4.85-77.98,26.36-80.26,67.67c-2.29,41.64,31.11,76.72,72.62,76.27c20.4-0.22,37.55-7.89,51.98-22.19
				c1.71-1.7,4.66-2.96,7.06-3.01c13.33-0.29,26.67-0.14,40.01-0.12c1.57,0,3.14,0.18,4.81,0.28
				c-13.9,37.33-65.27,80.55-131.69,64.65c-62.77-15.02-100.95-80.26-83.7-142.13C57.81,429.68,119.14,398.94,169.69,408.93z"/>
		</g>
		<g>
			<path class="st2" d="M158.18,465.17c0,7.05,0,14.12,0,21.47c-1.74-0.23-3.39-0.47-5.04-0.67c-20.56-2.43-39.12,13.22-40.26,33.94
				c-1.15,20.89,15.6,38.48,36.43,38.26c10.23-0.11,18.83-3.96,26.08-11.13c0.86-0.85,2.34-1.48,3.54-1.51
				c6.69-0.14,13.38-0.07,20.07-0.06c0.79,0,1.57,0.09,2.41,0.14c-6.97,18.73-32.74,40.41-66.07,32.43
				c-31.49-7.54-50.64-40.26-41.99-71.3C102.06,475.57,132.83,460.16,158.18,465.17z"/>
		</g>
		<g>
			<path class="st2" d="M231.54,494.56c-8.76,4.17-17.73,9.57-27.44,12.73c-8.67,2.81-18.15,3.14-27.27,4.56
				c-2.95,0.46-4.05-0.82-4.03-3.79c0.09-14.79,0.11-29.58-0.01-44.37c-0.03-3.24,1.24-4.21,4.32-4.15
				c7.64,0.15,15.28,0.06,22.92,0.05c6.82,0,6.83-0.01,6.83-7.05c0.01-7.31,0.14-14.63-0.07-21.94c-0.11-3.66,0.87-5.2,4.88-5.14
				c14.14,0.21,28.28,0.21,42.42,0.01c4.02-0.06,4.99,1.48,4.81,5.17c-0.84,17.59-5.87,33.83-15.11,49.13
				c14.1-12.07,29.68-20.3,49.13-20.31c0,17.59,0,34.72,0,52.73c-4.35,0-8.68,0-13,0c-5.36,0-10.73,0.15-16.09-0.07
				c-3.37-0.14-4.59,1-4.51,4.44c0.19,7.96,0.07,15.93,0.04,23.89c-0.01,1.75-0.15,3.5-0.25,5.5c-17.53,0-34.67,0-52.52,0
				C212.25,526.8,220.76,509.63,231.54,494.56z"/>
		</g>
	</g>
	<text transform="matrix(1 0 0 1 330.2183 511.4619)" class="st1"><tspan x="0" y="0" class="st2 st3 st4">CONNECT</tspan><tspan x="0" y="124.77" class="st2 st3 st4">CARE</tspan></text>
</g>
<g>
	<g>
		<path class="st2" d="M556.32,175.37c0,45.22,0,90.6,0,137.76c-11.15-1.48-21.73-3.02-32.34-4.28
			c-131.9-15.61-251.03,84.84-258.36,217.81c-7.39,134.05,100.13,246.95,233.77,245.52c65.66-0.7,120.86-25.4,167.32-71.44
			c5.51-5.46,14.99-9.52,22.73-9.68c42.91-0.92,85.85-0.46,128.78-0.39c5.05,0.01,10.1,0.58,15.48,0.91
			C788.98,811.76,623.6,950.88,409.78,899.71C207.73,851.35,84.82,641.35,140.37,442.2C196.16,242.14,393.6,143.21,556.32,175.37z"
			/>
	</g>
	<g>
		<path class="st2" d="M519.27,356.39c0,22.68,0,45.45,0,69.11c-5.59-0.74-10.9-1.52-16.22-2.15
			c-66.17-7.83-125.93,42.56-129.61,109.27c-3.71,67.25,50.23,123.88,117.27,123.16c32.94-0.35,60.63-12.74,83.94-35.84
			c2.76-2.74,7.52-4.77,11.4-4.86c21.53-0.46,43.07-0.23,64.6-0.19c2.53,0,5.07,0.29,7.76,0.46
			c-22.44,60.28-105.4,130.08-212.66,104.4c-101.36-24.26-163.02-129.6-135.15-229.51C338.6,389.88,437.65,340.26,519.27,356.39z"/>
	</g>
	<g>
		<path class="st2" d="M755.41,451.02c-28.19,13.42-57.08,30.82-88.33,40.97c-27.91,9.06-58.42,10.12-87.78,14.68
			c-9.48,1.47-13.04-2.63-12.98-12.19c0.28-47.61,0.35-95.23-0.02-142.84c-0.08-10.45,3.99-13.55,13.92-13.36
			c24.58,0.49,49.18,0.18,73.77,0.17c21.94-0.01,21.97-0.03,22-22.69c0.02-23.55,0.44-47.1-0.24-70.63
			c-0.34-11.77,2.8-16.75,15.7-16.56c45.51,0.68,91.04,0.67,136.56,0.03c12.93-0.18,16.06,4.78,15.49,16.65
			c-2.71,56.62-18.9,108.9-48.63,158.15c45.38-38.85,95.53-65.36,158.15-65.38c0,56.61,0,111.77,0,169.75c-14.01,0-27.93,0-41.84,0
			c-17.27-0.01-34.55,0.48-51.79-0.21c-10.83-0.43-14.77,3.23-14.5,14.29c0.62,25.62,0.22,51.27,0.12,76.91
			c-0.02,5.63-0.49,11.25-0.8,17.71c-56.44,0-111.6,0-169.05,0C693.32,554.8,720.7,499.52,755.41,451.02z"/>
	</g>
</g>
</svg>
